<?xml version="1.0" encoding="utf-8"?>
<?xml-stylesheet type="text/xsl" href="rss1.xsl"?>
<rss version="2.0" xmlns:atom="http://www.w3.org/2005/Atom" xmlns:content="http://purl.org/rss/1.0/modules/content/" xmlns:dc="http://purl.org/dc/elements/1.1/" xmlns:media="http://search.yahoo.com/mrss/">
<channel>
 <title>Getty</title>
 <link>http://www.gettyimg.com/</link>
 <atom:link href="http://www.gettyimg.com/" rel="self" type="application/rss+xml" />

 
                <item>
                <title><![CDATA[【Cinema Center】SERIES - Nella the Princess Knight - Season 2 - 1080p Amazon WEB-DL DDP2.0 H.264-LAZY]]></title>
                <link><![CDATA[https://sharemania.us/threads/nella-the-princess-knight-season-2-1080p-amazon-web-dl-ddp2-0-h-264-lazy.234175/]]></link>
                <description><![CDATA[<article>
<blockquote class="messageText SelectQuoteContainer ugc baseHtml">
Nella the Princess Knight:<img src="http:////cdn2.broadcasthe.net/tvdb/banners/graphical/322934-g.jpg" class="bbCodeImage LbImage" alt="[​IMG]" data-url="http:////cdn2.broadcasthe.net/tvdb/banners/graphical/322934-g.jpg" style=""> <br>
<br>
<div class="bbCodeBlock bbCodeQuote">
<aside>
<blockquote class="quoteContainer"><div class="quote"><i><b>Synopsis:</b></i><br>
Nella is a princess who transforms into a knight! She goes on fantastical adventures with her friends, Sir Garret, Trinket, and Clod, to fight for what's right.</div><div class="quoteExpand">Click to expand...</div></blockquote>
</aside>
</div>
<div class="ToggleTriggerAnchor bbCodeSpoilerContainer">
<button type="button" class="button bbCodeSpoilerButton ToggleTrigger Tooltip JsOnly" data-target="> .SpoilerTarget"><span>Spoiler: <span class="SpoilerTitle">MediaInfo</span></span></button>
<div class="SpoilerTarget bbCodeSpoilerText">General<br>
Unique ID : 275093347225502946068081334802010653991 (0xCEF50D2E99F6435C2AD49F53CD88C527)<br>
Complete name : Nella.the.Princess.Knight.S02E01E02.Queen.Moms.Day.-.Dragon.Playdate.Disaster.1080p.AMZN.WEB-DL.DDP2.0.H.264-LAZY.mkv<br>
Format : Matroska<br>
Format version : Version 4<br>
File size : 673 MiB<br>
Duration : 22 min 45 s<br>
Overall bit rate : 4 136 kb/s<br>
Frame rate : 23.976 FPS<br>
Encoded date : 2023-12-17 17:12:44 UTC<br>
Writing application : mkvmerge v81.0 ('Milliontown') 64-bit<br>
Writing library : libebml v1.4.4 + libmatroska v1.7.1<br>
<br>
Video<br>
ID : 1<br>
Format : AVC<br>
Format/Info : Advanced Video Codec<br>
Format profile : High@L4<br>
Format settings : CABAC / 4 Ref Frames<br>
Format settings, CABAC : Yes<br>
Format settings, Reference frames : 4 frames<br>
Codec ID : V_MPEG4/ISO/AVC<br>
Duration : 22 min 45 s<br>
Bit rate mode : Constant<br>
Bit rate : 3 910 kb/s<br>
Nominal bit rate : 10 000 kb/s<br>
Width : 1 920 pixels<br>
Height : 1 080 pixels<br>
Display aspect ratio : 16:9<br>
Frame rate mode : Constant<br>
Frame rate : 23.976 (24000/1001) FPS<br>
Color space : YUV<br>
Chroma subsampling : 4:2:0<br>
Bit depth : 8 bits<br>
Scan type : Progressive<br>
Bits/(Pixel*Frame) : 0.079<br>
Stream size : 637 MiB (95%)<br>
Default : Yes<br>
Forced : No<br>
Color range : Limited<br>
Color primaries : BT.709<br>
Transfer characteristics : BT.709<br>
Matrix coefficients : BT.709<br>
<br>
Audio<br>
ID : 2<br>
Format : E-AC-3<br>
Format/Info : Enhanced AC-3<br>
Commercial name : Dolby Digital Plus<br>
Codec ID : A_EAC3<br>
Duration : 22 min 45 s<br>
Bit rate mode : Constant<br>
Bit rate : 224 kb/s<br>
Channel(s) : 2 channels<br>
Channel layout : L R<br>
Sampling rate : 48.0 kHz<br>
Frame rate : 31.250 FPS (1536 SPF)<br>
Compression mode : Lossy<br>
Stream size : 36.5 MiB (5%)<br>
Language : English<br>
Service kind : Complete Main<br>
Default : Yes<br>
Forced : No<br>
<br>
Text<br>
ID : 3<br>
Format : UTF-8<br>
Codec ID : S_TEXT/UTF8<br>
Codec ID/Info : UTF-8 Plain Text<br>
Duration : 22 min 3 s<br>
Bit rate : 93 b/s<br>
Frame rate : 0.431 FPS<br>
Count of elements : 570<br>
Stream size : 15.1 KiB (0%)<br>
Title : SDH<br>
Language : English<br>
Default : No<br>
Forced : No</div>
</div><br>
Screenshots:<br>
<img src="https://i.imgur.com/j7nNyFA.jpg" class="bbCodeImage LbImage" alt="[​IMG]" data-url="https://i.imgur.com/j7nNyFA.jpg" style=""> <br>
<br>
<div class="bbCodeBlock bbCodeVfcHH HiddenContent">
<div class="attribution type">Hidden Content:</div>
<blockquote>You must either reply or click 'Like' to see the hidden information contained here.</blockquote>
</div>
<div class="messageTextEndMarker">&nbsp;</div>
</blockquote>
</article>]]></description>
                <author><![CDATA[LazyRips]]></author>
                </item>

                
                <item>
                <title><![CDATA[【Requests】[REQ AUD] - Can You rip/download those songs and albums for me please!?]]></title>
                <link><![CDATA[https://sharemania.us/threads/can-you-rip-download-those-songs-and-albums-for-me-please.234174/]]></link>
                <description><![CDATA[<article>
<blockquote class="messageText SelectQuoteContainer ugc baseHtml">
Thanks in advance!<br>
<br>
<br>
<a href="https://www.qobuz.com/us-en/album/te-acuerdas-ha-ash-reik/d4mfhkkdpryxb" target="_blank" class="externalLink" rel="nofollow">https://www.qobuz.com/us-en/album/te-acuerdas-ha-ash-reik/d4mfhkkdpryxb</a><br>
<br>
<a href="https://www.qobuz.com/us-en/album/rise-like-a-phoenix-aus-the-voice-of-germany-2023-kevin-derbas-the-voice-of-germany/b1okrpi40uakb" target="_blank" class="externalLink" rel="nofollow">https://www.qobuz.com/us-en/album/r...vin-derbas-the-voice-of-germany/b1okrpi40uakb</a><br>
<br>
<a href="https://www.qobuz.com/us-en/album/eurovision-unplugged-sennek/svqe3034x6v0b" target="_blank" class="externalLink" rel="nofollow">https://www.qobuz.com/us-en/album/eurovision-unplugged-sennek/svqe3034x6v0b</a><br>
<br>
<a href="https://www.qobuz.com/us-en/album/rise-like-a-phoenix-robert-cristian-jordan/c2d5rddc69oba" target="_blank" class="externalLink" rel="nofollow">https://www.qobuz.com/us-en/album/rise-like-a-phoenix-robert-cristian-jordan/c2d5rddc69oba</a><br>
<br>
<a href="https://www.qobuz.com/us-en/album/addictocrate-loic-nottet/hnyaezuf9xb5b" target="_blank" class="externalLink" rel="nofollow">https://www.qobuz.com/us-en/album/addictocrate-loic-nottet/hnyaezuf9xb5b</a><br>
<br>
<a href="https://www.qobuz.com/us-en/album/vocea-romaniei-auditii-pe-nevazute-1-sezonul-11-bucuria-muzicii-vocea-romaniei/mq8078mnj9j1a" target="_blank" class="externalLink" rel="nofollow">https://www.qobuz.com/us-en/album/v...-bucuria-muzicii-vocea-romaniei/mq8078mnj9j1a</a><br>
<br>
<a href="https://www.qobuz.com/us-en/album/the-dream-roko/iace9xizu25ia" target="_blank" class="externalLink" rel="nofollow">https://www.qobuz.com/us-en/album/the-dream-roko/iace9xizu25ia</a><br>
<br>
<a href="https://www.qobuz.com/us-en/album/heroj-roko/tte9ctpyui34a" target="_blank" class="externalLink" rel="nofollow">https://www.qobuz.com/us-en/album/heroj-roko/tte9ctpyui34a</a><br>
<br>
<a href="https://www.qobuz.com/us-en/album/the-guest-pt-2-son-seung-yeon/hkqrskwhk2zpb" target="_blank" class="externalLink" rel="nofollow">https://www.qobuz.com/us-en/album/the-guest-pt-2-son-seung-yeon/hkqrskwhk2zpb</a><br>
<br>
<a href="https://www.qobuz.com/us-en/album/beaux-reves-loic-nottet-feat-prinzly/wkrmfdphileqc" target="_blank" class="externalLink" rel="nofollow">https://www.qobuz.com/us-en/album/beaux-reves-loic-nottet-feat-prinzly/wkrmfdphileqc</a>
<div class="messageTextEndMarker">&nbsp;</div>
</blockquote>
</article>]]></description>
                <author><![CDATA[Sunshinebrightmoon]]></author>
                </item>

                
                <item>
                <title><![CDATA[【Requests】[REQ AUD] - Deleted!]]></title>
                <link><![CDATA[https://sharemania.us/threads/deleted.234163/]]></link>
                <description><![CDATA[<article>
<blockquote class="messageText SelectQuoteContainer ugc baseHtml">
Deleted
<div class="messageTextEndMarker">&nbsp;</div>
</blockquote>
</article>]]></description>
                <author><![CDATA[Edbeby]]></author>
                </item>

                </channel></rss>